<svg height="512" viewBox="0 0 512 512" width="512" xmlns="http://www.w3.org/2000/svg"><g fill="#d00000" id="_26-warning" data-name="26-warning"><g id="linear_color" data-name="linear color"><path d="m430.107 241.749-80.148-136.725a44 44 0 0 0 -75.918 0l-14.041 23.953v-64.977a60 60 0 0 0 -120 0v28h-52a12 12 0 0 0 0 24h52v40h-52a12 12 0 0 0 0 24h52v40h-52a12 12 0 0 0 0 24h52v40h-52a12 12 0 0 0 0 24h52v38.266a92.407 92.407 0 0 0 -31.989 70.776 92.287 92.287 0 0 0 89.777 90.936q1.119.026 2.234.026a92.007 92.007 0 0 0 59.978-161.752v-38.252h132.148a44 44 0 0 0 37.959-66.251zm-189.313 119.851a68 68 0 0 1 -42.441 122.387c-36.185-.853-65.947-31-66.344-67.209a68.3 68.3 0 0 1 27.2-55.179 12 12 0 0 0 4.791-9.599v-288a36 36 0 0 1 72 0v105.919l-24 40.941v-138.86a12 12 0 0 0 -24 0v187.854a43.043 43.043 0 0 0 0 8.271v105.552a44 44 0 1 0 24 0v-70.339a44.037 44.037 0 0 0 19.852 4.662h4.148v44a12 12 0 0 0 4.794 9.6zm-40.794 34.4a20 20 0 1 1 -20 20 20.023 20.023 0 0 1 20-20zm209.5-122.058a19.787 19.787 0 0 1 -17.352 10.058h-160.3c-15.289.267-25.045-17.112-17.254-30.114l80.148-136.725a20 20 0 0 1 34.508 0l80.15 136.725a19.788 19.788 0 0 1 .1 20.056z"/><path d="m312 139a12 12 0 0 0 -12 12v40a12 12 0 0 0 24 0v-40a12 12 0 0 0 -12-12z"/><path d="m312 228a12 12 0 0 0 -12 12v8a12 12 0 0 0 24 0v-8a12 12 0 0 0 -12-12z"/></g></g></svg>