<svg height="512" viewBox="0 0 512 512" width="512" xmlns="http://www.w3.org/2000/svg"><g id="_16-sunrise" fill="#dd2d4a" data-name="16-sunrise"><g id="linear_color" data-name="linear color"><path d="m257 60a12 12 0 0 0 12-12v-25a12 12 0 0 0 -24 0v25a12 12 0 0 0 12 12z"/><path d="m142.607 81.867a12 12 0 0 0 20.786-12l-12.5-21.651a12 12 0 0 0 -20.786 12z"/><path d="m49.216 149.893 21.651 12.5a12 12 0 1 0 12-20.786l-21.651-12.5a12 12 0 0 0 -12 20.786z"/><path d="m437.144 164a11.956 11.956 0 0 0 5.989-1.609l21.651-12.5a12 12 0 1 0 -12-20.786l-21.651 12.5c-10.617 6.027-5.992 22.552 6.011 22.395z"/><path d="m355 86.259a11.995 11.995 0 0 0 16.393-4.392l12.5-21.651a12 12 0 0 0 -20.786-12l-12.5 21.651a12 12 0 0 0 4.393 16.392z"/><path d="m495.5 244.5h-66.894c-5.938-89.5-80.63-160.5-171.606-160.5s-165.668 71-171.606 160.5h-68.894a12 12 0 0 0 0 24h227.5v75.5a12 12 0 0 0 24 0v-75.5h227.5a12 12 0 0 0 0-24zm-238.5-136.5c77.568 0 141.39 59.983 147.519 136h-136.519v-63.029l19.515 19.514a12 12 0 0 0 16.97-16.97l-40-40a12 12 0 0 0 -16.97 0l-40 40a12 12 0 0 0 16.97 16.97l19.515-19.514v63.029h-134.519c6.129-76.017 69.951-136 147.519-136z"/></g></g></svg>