<svg height="512" viewBox="0 0 512 512" width="512" xmlns="http://www.w3.org/2000/svg"><g id="_01-sunny_cloud" data-name="01-sunny cloud"><g id="linear_color" data-name="linear color"><path fill="#ec7d10" d="m330 52a12 12 0 0 0 12-12v-16a12 12 0 0 0 -24 0v16a12 12 0 0 0 12 12z"/><path fill="#ec7d10" d="m247.608 65.292a12 12 0 1 0 20.784-12l-8-13.856a12 12 0 0 0 -20.784 12z"/><path fill="#ec7d10" d="m185.436 114.392 13.856 8a12 12 0 1 0 12-20.784l-13.856-8a12 12 0 1 0 -12 20.784z"/><path fill="#ec7d10" d="m448.708 266.392 13.856 8a12 12 0 1 0 12-20.784l-13.856-8a12 12 0 1 0 -12 20.784z"/><path fill="#ec7d10" d="m462 184a12 12 0 0 0 12 12h16a12 12 0 0 0 0-24h-16a12 12 0 0 0 -12 12z"/><path fill="#ec7d10" d="m454.719 124a11.949 11.949 0 0 0 5.989-1.61l13.856-8a12 12 0 1 0 -12-20.784l-13.856 8a12 12 0 0 0 6.011 22.394z"/><path fill="#ec7d10" d="m396 69.685a12 12 0 0 0 16.392-4.393l8-13.856a12 12 0 1 0 -20.784-12l-8 13.856a12 12 0 0 0 4.392 16.393z"/><path fill="#ffbc0a" d="m392 276c-1.348 0-2.7.023-4.058.07a132.033 132.033 0 0 0 -1.675-17.413 100 100 0 1 0 -152.838-108.722c-60.816 10.522-107.51 62.8-109.371 126.135-1.355-.047-2.71-.07-4.058-.07a116 116 0 0 0 0 232h272a116 116 0 0 0 0-232zm-62-176a76 76 0 0 1 49.573 133.6 132.241 132.241 0 0 0 -120.273-85.559 75.844 75.844 0 0 1 70.7-48.041zm62 384h-272a92 92 0 0 1 0-184c3.551-.181 7.187.715 10.681 0 4.876.142 10.922.346 14.351-3.8 4.441-4.271 2.923-10.8 2.968-16.2a108.152 108.152 0 0 1 96.783-107.419c.042-.006.084-.009.126-.015a108.046 108.046 0 0 1 119.091 107.434c.045 5.4-1.473 11.93 2.969 16.2 3.42 4.14 9.485 3.946 14.35 3.8 3.5.716 7.13-.181 10.681 0a92 92 0 0 1 0 184z"/></g></g></svg>