<svg height="512" viewBox="0 0 512 512" width="512" xmlns="http://www.w3.org/2000/svg"><g id="_09-humidity" data-name="09-humidity"><g id="linear_color" data-name="linear color"><path fill="#45a29e"  d="m392 132c-1.348 0-2.7.023-4.058.07-2.086-70.97-60.472-128.07-131.942-128.07s-129.856 57.1-131.942 128.07c-1.355-.047-2.71-.07-4.058-.07a116 116 0 0 0 0 232h272a116 116 0 0 0 0-232zm0 208h-272a92 92 0 0 1 0-184c3.551-.181 7.186.716 10.681 0 4.876.142 10.922.346 14.351-3.8 4.441-4.271 2.923-10.8 2.968-16.2a108 108 0 0 1 216 0c.045 5.4-1.473 11.93 2.969 16.2 3.42 4.14 9.485 3.946 14.35 3.8 3.5.716 7.129-.181 10.681 0a92 92 0 0 1 0 184z"/><path fill="#023e8a" d="m264.836 118.881a12 12 0 0 0 -17.672 0c-.672.731-16.636 18.157-32.843 40.271-23.094 31.512-34.321 55.341-34.321 72.848a76 76 0 0 0 152 0c0-17.507-11.227-41.336-34.321-72.848-16.207-22.114-32.171-39.54-32.843-40.271zm-8.836 165.119a52.059 52.059 0 0 1 -52-52c0-19.673 29.014-60.062 52-86.9 22.987 26.838 52 67.226 52 86.9a52.059 52.059 0 0 1 -52 52z"/><path fill="#023e8a" d="m343.348 415.217a12 12 0 0 0 -12 12v8a12 12 0 0 0 24 0v-8a12 12 0 0 0 -12-12z"/><path fill="#023e8a" d="m343.348 475.217a12 12 0 0 0 -12 12v8a12 12 0 0 0 24 0v-8a12 12 0 0 0 -12-12z"/><path fill="#023e8a" d="m255.348 415.217a12 12 0 0 0 -12 12v8a12 12 0 0 0 24 0v-8a12 12 0 0 0 -12-12z"/><path fill="#023e8a" d="m255.348 475.217a12 12 0 0 0 -12 12v8a12 12 0 0 0 24 0v-8a12 12 0 0 0 -12-12z"/><path fill="#023e8a" d="m167.348 415.217a12 12 0 0 0 -12 12v8a12 12 0 0 0 24 0v-8a12 12 0 0 0 -12-12z"/><path fill="#023e8a" d="m167.348 475.217a12 12 0 0 0 -12 12v8a12 12 0 0 0 24 0v-8a12 12 0 0 0 -12-12z"/></g></g></svg>