<?xml version="1.0" encoding="UTF-8"?>
<svg xmlns="http://www.w3.org/2000/svg" viewBox="0 0 512 512" width="512" height="512"><g id="_02-sunny" data-name="02-sunny"><g id="linear_color" data-name="linear color"><path fill="#ffbc0a" d="M428,256a172.223,172.223,0,0,0-14-68H456a52,52,0,0,0,2.618-103.935,52.007,52.007,0,0,0-101.477,1.076A51.981,51.981,0,0,0,329.9,100.658,172.38,172.38,0,0,0,256,84C161.159,84,84,161.159,84,256a173.138,173.138,0,0,0,2.438,28.889,52.143,52.143,0,0,0-41.3,40.252A52,52,0,0,0,56,428h88a51.86,51.86,0,0,0,38.1-16.658A172.372,172.372,0,0,0,256,428C350.841,428,428,350.841,428,256ZM368,108a12,12,0,0,0,12-12,28,28,0,0,1,56-.066c-.728,7.674,6.847,14.367,14.373,12.63A28,28,0,1,1,456,164H368a28,28,0,0,1,0-56ZM144,404H56a28,28,0,0,1,0-56,12,12,0,0,0,12-12,28,28,0,0,1,56-.066c-.728,7.673,6.847,14.368,14.373,12.63A28,28,0,1,1,144,404Zm2.618-79.935a52.2,52.2,0,0,0-35.506-37.82A148.775,148.775,0,0,1,108,256c0-81.607,66.393-148,148-148a148.335,148.335,0,0,1,62.036,13.611A51.983,51.983,0,0,0,368,188h19.464A147.991,147.991,0,0,1,404,256c0,81.607-66.393,148-148,148a148.324,148.324,0,0,1-62.04-13.613,51.969,51.969,0,0,0-47.342-66.322Z"/><path fill="#ec7d10" d="M256,60a12,12,0,0,0,12-12V23a12,12,0,0,0-24,0V48A12,12,0,0,0,256,60Z"/><path fill="#ec7d10" d="M141.608,81.867a12,12,0,1,0,20.784-12l-12.5-21.651a12,12,0,0,0-20.784,12Z"/><path fill="#ec7d10" d="M48.216,149.892l21.651,12.5a12,12,0,0,0,12-20.784l-21.651-12.5a12,12,0,1,0-12,20.784Z"/><path fill="#ec7d10" d="M23,268H48a12,12,0,0,0,0-24H23a12,12,0,0,0,0,24Z"/><path fill="#ec7d10" d="M256,452a12,12,0,0,0-12,12v25a12,12,0,0,0,24,0V464A12,12,0,0,0,256,452Z"/><path fill="#ec7d10" d="M370.392,430.133a12,12,0,1,0-20.784,12l12.5,21.651a12,12,0,0,0,20.784-12Z"/><path fill="#ec7d10" d="M463.784,362.108l-21.651-12.5a12,12,0,0,0-12,20.784l21.651,12.5a12,12,0,1,0,12-20.784Z"/><path fill="#ec7d10" d="M489,244H464a12,12,0,0,0,0,24h25a12,12,0,0,0,0-24Z"/></g></g></svg>
