<svg height="512" viewBox="0 0 512 512" width="512" xmlns="http://www.w3.org/2000/svg"><g fill="#c200fb" id="_07-windy_couldy" data-name="07-windy couldy"><g id="linear_color" data-name="linear color"><path  d="m280 172h144a44 44 0 1 0 -33-73.106 12 12 0 0 0 18 15.88 20 20 0 1 1 15 33.226h-144a12 12 0 0 0 0 24z"/><path  d="m464 260h-144a12 12 0 0 0 0 24h144a20 20 0 1 1 -15 33.226 12 12 0 0 0 -18 15.88 44 44 0 1 0 33-73.106z"/><path  d="m192 324h-144a44 44 0 1 0 33 73.106 12 12 0 0 0 -18-15.88 20 20 0 1 1 -15-33.226h144a12 12 0 0 0 0-24z"/><path  d="m272 228h184a12 12 0 0 0 0-24h-184a12 12 0 0 0 0 24z"/><path  d="m208 204a12 12 0 0 0 0 24h16a12 12 0 0 0 0-24z"/><path d="m340 336a12 12 0 0 0 -12-12h-88a12 12 0 0 0 0 24h88a12 12 0 0 0 12-12z"/><path d="m64 260a12 12 0 0 0 0 24h104a12 12 0 0 0 0-24z"/><path d="m284 272a12 12 0 0 0 -12-12h-56a12 12 0 0 0 0 24h56a12 12 0 0 0 12-12z"/><path fill="#00b4d8" d="m88 172h88a52 52 0 0 0 2.618-103.935 52.007 52.007 0 0 0 -101.477 1.076 52 52 0 0 0 10.859 102.859zm0-80a12 12 0 0 0 12-12 28 28 0 0 1 56-.066l-.018.631a12 12 0 0 0 14.391 12 28 28 0 1 1 5.627 55.435h-88a28 28 0 0 1 0-56z"/><path fill="#00b4d8" d="m427.471 403.127a52.007 52.007 0 0 0 -101.477 1.073 52 52 0 0 0 10.859 102.859h88a52 52 0 0 0 2.618-103.935zm-2.618 79.935h-88a28 28 0 1 1 0-56 12 12 0 0 0 12-12 28 28 0 0 1 56-.066l-.019.632a12 12 0 0 0 14.393 12 28 28 0 1 1 5.625 55.436z"/></g></g></svg>