<svg height="512" viewBox="0 0 512 512" width="512" xmlns="http://www.w3.org/2000/svg"><g id="_25-temp_warm" fill="#00b4d8" data-name="25-temp warm"><g id="linear_color" data-name="linear color"><circle fill="#023e8a" cx="360" cy="232" r="12"/><path  d="m260 346.253v-282.253a60 60 0 0 0 -120 0v28h-52a12 12 0 0 0 0 24h52v40h-52a12 12 0 0 0 0 24h52v40h-52a12 12 0 0 0 0 24h52v40h-52a12 12 0 0 0 0 24h52v38.265a92.433 92.433 0 0 0 -31.994 70.779 92.3 92.3 0 0 0 89.784 90.931c.747.017 1.491.026 2.236.026a92 92 0 0 0 59.974-161.748zm-12.49 118.4a67.356 67.356 0 0 1 -49.156 19.33c-36.183-.85-65.947-31-66.35-67.2a68.319 68.319 0 0 1 27.2-55.182 12 12 0 0 0 4.796-9.601v-288a36 36 0 0 1 72 0v288a12 12 0 0 0 4.792 9.595 68 68 0 0 1 6.718 103.055z"/><path fill="#dd2d4a" d="m212 373.677v-301.677a12 12 0 0 0 -24 0v301.677a44 44 0 1 0 24 0zm-12 62.323a20 20 0 1 1 20-20 20.023 20.023 0 0 1 -20 20z"/><path fill="#023e8a" d="m393.742 175.053c-12.237-17.017-24.3-30.5-24.811-31.068a12 12 0 0 0 -17.862 0c-.508.566-12.574 14.051-24.811 31.068-17.669 24.568-26.258 43.196-26.258 56.947a60 60 0 0 0 120 0c0-13.751-8.589-32.379-26.258-56.947zm-33.742 92.947a36.04 36.04 0 0 1 -36-36c0-12.79 18.883-40.675 36-61.547 17.117 20.873 36 48.758 36 61.547a36.04 36.04 0 0 1 -36 36z"/></g></g></svg>