<?xml version="1.0" encoding="UTF-8"?>
<svg xmlns="http://www.w3.org/2000/svg" viewBox="0 0 512 512" width="512" height="512"><g id="_06-snow" data-name="06-snow"><g id="linear_color" data-name="linear color"><path fill="#023e8a" d="M392,132c-1.348,0-2.7.023-4.058.07C385.856,61.1,327.47,4,256,4S126.144,61.1,124.058,132.07c-1.355-.047-2.71-.07-4.058-.07a116,116,0,0,0,0,232H392a116,116,0,0,0,0-232Zm0,208H120a92,92,0,0,1,0-184c3.55-.181,7.185.716,10.681,0,4.875.142,10.921.346,14.349-3.8,4.442-4.269,2.926-10.8,2.97-16.2a108,108,0,0,1,216,0c.045,5.4-1.472,11.934,2.97,16.2,3.42,4.14,9.485,3.946,14.349,3.8,3.5.716,7.13-.181,10.681,0a92,92,0,0,1,0,184Z"/><path fill="#00b4d8" d="M320,204H284.971l19.514-19.515a12,12,0,0,0-16.97-16.97L268,187.029V152a12,12,0,0,0-24,0v35.029l-19.515-19.514a12,12,0,0,0-16.97,16.97L227.029,204H192a12,12,0,0,0,0,24h35.029l-19.514,19.515a12,12,0,1,0,16.97,16.97L244,244.971V280a12,12,0,0,0,24,0V244.971l19.515,19.514a12,12,0,0,0,16.97-16.97L284.971,228H320a12,12,0,0,0,0-24Z"/><circle fill="#00b4d8" cx="256" cy="396" r="12"/><circle fill="#00b4d8" cx="256" cy="444" r="12"/><circle fill="#00b4d8" cx="256" cy="492" r="12"/><circle fill="#00b4d8" cx="340" cy="396" r="12"/><circle fill="#00b4d8" cx="340" cy="444" r="12"/><circle fill="#00b4d8" cx="340" cy="492" r="12"/><circle fill="#00b4d8" cx="172" cy="396" r="12"/><circle fill="#00b4d8" cx="172" cy="444" r="12"/><circle fill="#00b4d8" cx="172" cy="492" r="12"/></g></g></svg>
