<?xml version="1.0" encoding="UTF-8"?>
<svg xmlns="http://www.w3.org/2000/svg" viewBox="0 0 512 512" width="512" height="512"><g fill="#45a29e" id="_17-sunset" data-name="17-sunset"><g id="linear_color" data-name="linear color"><path d="M257,60a12,12,0,0,0,12-12V23a12,12,0,0,0-24,0V48A12,12,0,0,0,257,60Z"/><path d="M142.607,81.867a12,12,0,0,0,20.786-12l-12.5-21.651a12,12,0,0,0-20.786,12Z"/><path d="M49.216,149.893l21.651,12.5a12,12,0,1,0,12-20.786l-21.651-12.5a12,12,0,0,0-12,20.786Z"/><path d="M437.144,164a11.956,11.956,0,0,0,5.989-1.609l21.651-12.5a12,12,0,1,0-12-20.786l-21.651,12.5a12,12,0,0,0,6.011,22.4Z"/><path d="M355,86.259a11.995,11.995,0,0,0,16.393-4.392l12.5-21.651a12,12,0,0,0-20.786-12l-12.5,21.651A12,12,0,0,0,355,86.259Z"/><path d="M495.5,244.5H428.606C422.668,155,347.976,84,257,84S91.332,155,85.394,244.5H16.5a12,12,0,0,0,0,24H244v46.529l-19.515-19.514a12,12,0,0,0-16.97,16.97l40,40a12,12,0,0,0,16.97,0l40-40a12,12,0,0,0-16.97-16.97L268,315.029V268.5H495.5a12,12,0,0,0,0-24ZM257,108c77.568,0,141.39,59.983,147.519,136H268V152a12,12,0,0,0-24,0v92H109.481C115.61,167.983,179.432,108,257,108Z"/></g></g></svg>
