<?xml version="1.0" encoding="UTF-8"?>
<svg xmlns="http://www.w3.org/2000/svg" viewBox="0 0 512 512" width="512" height="512"><g id="_04-thunder" data-name="04-thunder"><g id="linear_color" data-name="linear color"><path fill="#ec7d10" d="M394,132c-1.348,0-2.7.023-4.058.07C387.856,61.1,329.47,4,258,4S128.144,61.1,126.058,132.07c-1.355-.047-2.71-.07-4.058-.07a116,116,0,0,0-13.69,231.188l-7.78,25.283a12,12,0,0,0,20.208,11.754L154.832,364H284.06l-7.53,24.471a12,12,0,0,0,20.208,11.754L330.832,364H394a116,116,0,0,0,0-232ZM153.652,280.871A12,12,0,0,0,144,276H123.416l36-72h54.139l-38.586,44.1A12,12,0,0,0,184,268h28.227l-67.765,72h-3.907l14.915-48.471A12,12,0,0,0,153.652,280.871Zm176,0A12,12,0,0,0,320,276H299.416l36-72h54.139l-38.586,44.1A12,12,0,0,0,360,268h28.227l-67.765,72h-3.907l14.915-48.471A12,12,0,0,0,329.652,280.871ZM394,340H353.42l71.318-75.775A12,12,0,0,0,416,244H386.445l38.586-44.1A12,12,0,0,0,416,180H328a12,12,0,0,0-10.733,6.633l-48,96A12,12,0,0,0,280,300h23.753l-12.308,40H177.42l71.318-75.775A12,12,0,0,0,240,244H210.445l38.586-44.1A12,12,0,0,0,240,180H152a12,12,0,0,0-10.733,6.633l-48,96A12,12,0,0,0,104,300h23.753l-12.237,39.768A92,92,0,0,1,122,156c2.358,0,4.744.09,7.091.269a11.953,11.953,0,0,0,3.59-.269h5.59a12,12,0,0,0,11.975-12.787c-.163-2.48-.246-4.907-.246-7.213a108,108,0,0,1,216,0c0,2.306-.083,4.733-.246,7.213A12,12,0,0,0,377.729,156h5.59a11.948,11.948,0,0,0,3.59.269c2.347-.179,4.733-.269,7.091-.269a92,92,0,0,1,0,184Z"/><path fill="#00b4d8" d="M344,416a12,12,0,0,0-12,12v8a12,12,0,0,0,24,0v-8A12,12,0,0,0,344,416Z"/><path fill="#00b4d8" d="M344,476a12,12,0,0,0-12,12v8a12,12,0,0,0,24,0v-8A12,12,0,0,0,344,476Z"/><path fill="#00b4d8" d="M256,416a12,12,0,0,0-12,12v8a12,12,0,0,0,24,0v-8A12,12,0,0,0,256,416Z"/><path fill="#00b4d8" d="M256,476a12,12,0,0,0-12,12v8a12,12,0,0,0,24,0v-8A12,12,0,0,0,256,476Z"/><path fill="#00b4d8" d="M168,416a12,12,0,0,0-12,12v8a12,12,0,0,0,24,0v-8A12,12,0,0,0,168,416Z"/><path fill="#00b4d8" d="M168,476a12,12,0,0,0-12,12v8a12,12,0,0,0,24,0v-8A12,12,0,0,0,168,476Z"/></g></g></svg>
