<svg height="512" viewBox="0 0 512 512" width="512" xmlns="http://www.w3.org/2000/svg"><g id="_22-humidity" data-name="22-humidity"><g id="linear_color" data-name="linear color"><path fill="#04f06a" d="m349.884 114.194c-42.06-61.085-83.462-104.655-85.2-106.48a12 12 0 0 0 -17.362 0c-1.741 1.825-43.143 45.4-85.2 106.48-57.148 82.994-86.122 154.928-86.122 213.806 0 99.252 80.748 180 180 180s180-80.748 180-180c0-58.878-28.974-130.812-86.116-213.806zm-93.884 369.806c-86.019 0-156-69.981-156-156 0-112.107 122.017-256.256 156-294.223 33.983 37.967 156 182.116 156 294.223 0 86.019-69.981 156-156 156z"/><path fill="#023e8a" d="m387.513 316.546c-.784-11.194-18.352-16.339-32.843-16.546-15.968 0-24.512 5.492-31.376 9.906-5.708 3.669-9.48 6.094-18.4 6.094s-12.691-2.425-18.4-6.094c-6.862-4.414-15.405-9.906-31.374-9.906s-24.513 5.492-31.378 9.9c-5.708 3.67-9.479 6.1-18.4 6.1s-12.691-2.425-18.4-6.094c-6.865-4.414-15.408-9.906-31.377-9.906a50.432 50.432 0 0 0 -24.679 5.875c-8.1 4.018-6.492 14.884-6.887 22.125 0 72.785 59.215 132 132 132s132-59.215 132-132c.001-3.613-.158-7.36-.486-11.454zm-131.513 119.454a108.122 108.122 0 0 1 -108-108q0-1.565.052-3.218a32.327 32.327 0 0 1 7.514-.782c8.919 0 12.691 2.425 18.4 6.094 6.865 4.414 15.408 9.906 31.377 9.906s24.513-5.492 31.379-9.906c5.708-3.669 9.479-6.094 18.4-6.094s12.691 2.425 18.4 6.094c6.862 4.414 15.405 9.906 31.378 9.906s24.512-5.493 31.376-9.906c5.708-3.67 9.479-6.094 18.4-6.094a29.856 29.856 0 0 1 9.293 1.282q.036 1.4.037 2.718a108.122 108.122 0 0 1 -108.006 108z"/><path fill="#023e8a" d="m191.515 288.485a12 12 0 0 0 16.97 0l112-112a12 12 0 0 0 -16.97-16.97l-112 112a12 12 0 0 0 0 16.97z"/><path fill="#023e8a" d="m268 256a36 36 0 1 0 36-36 36.04 36.04 0 0 0 -36 36zm48 0a12 12 0 1 1 -12-12 12.013 12.013 0 0 1 12 12z"/><path fill="#023e8a" d="m216 216a36 36 0 1 0 -36-36 36.04 36.04 0 0 0 36 36zm0-48a12 12 0 1 1 -12 12 12.013 12.013 0 0 1 12-12z"/></g></g></svg>