<?xml version="1.0" encoding="UTF-8"?>
<svg xmlns="http://www.w3.org/2000/svg" viewBox="0 0 512 512" width="512" height="512"><g id="_03-windy" data-name="03-windy"><g id="linear_color" data-name="linear color"><path fill ="#ff6978" d="M256,60a12,12,0,0,0,12-12V23a12,12,0,0,0-24,0V48A12,12,0,0,0,256,60Z"/><path fill ="#ff6978" d="M141.608,81.867a12,12,0,1,0,20.784-12l-12.5-21.651a12,12,0,0,0-20.784,12Z"/><path fill ="#ff6978" d="M48.216,149.892l21.651,12.5a12,12,0,0,0,12-20.784l-21.651-12.5a12,12,0,1,0-12,20.784Z"/><path fill ="#ff6978" d="M158,425.741a12,12,0,0,0-16.392,4.392l-12.5,21.651a12,12,0,1,0,20.784,12l12.5-21.651A12,12,0,0,0,158,425.741Z"/><path fill ="#ff6978" d="M256,452a12,12,0,0,0-12,12v25a12,12,0,0,0,24,0V464A12,12,0,0,0,256,452Z"/><path fill ="#ff6978" d="M370.392,430.133a12,12,0,1,0-20.784,12l12.5,21.651a12,12,0,0,0,20.784-12Z"/><path fill ="#ff6978" d="M354,86.259a11.994,11.994,0,0,0,16.392-4.392l12.5-21.651a12,12,0,1,0-20.784-12l-12.5,21.651A12,12,0,0,0,354,86.259Z"/><path fill ="#dd2d4a" d="M464,260H427.949c.031-1.33.051-2.663.051-4a172.44,172.44,0,0,0-2.291-28H456a12,12,0,0,0,0-24H419.958a171.055,171.055,0,0,0-13.913-32H424a44,44,0,1,0-33-73.106,12,12,0,0,0,18,15.88A20,20,0,1,1,424,148H389.758A171.742,171.742,0,0,0,256,84C161.159,84,84,161.159,84,256c0,1.337.02,2.67.051,4H64a12,12,0,0,0,0,24H86.291a170.571,170.571,0,0,0,11.735,40H48a44,44,0,1,0,33,73.106,12,12,0,0,0-18-15.88A20,20,0,1,1,48,348h62.735A172.021,172.021,0,0,0,256,428c85.308,0,156.3-62.43,169.709-144H464a20,20,0,1,1-15,33.226,12,12,0,0,0-18,15.88A44,44,0,1,0,464,260ZM256,404a147.8,147.8,0,0,1-115.844-56H192a12,12,0,0,0,0-24H124.575a146.863,146.863,0,0,1-13.907-40H168a12,12,0,0,0,0-24H108.056q-.054-1.994-.056-4c0-81.607,66.393-148,148-148a147.451,147.451,0,0,1,101.078,40H280a12,12,0,0,0,0,24h97.781a147.728,147.728,0,0,1,16.78,32H272a12,12,0,0,0,0,24H401.332A148.168,148.168,0,0,1,404,256q0,2.007-.056,4H320a12,12,0,0,0,0,24h81.332C388.206,352.264,328.036,404,256,404Z"/><path fill ="#ff6978" d="M224,228a12,12,0,0,0,0-24H208a12,12,0,0,0,0,24Z"/><path fill ="#ff6978" d="M228,336a12,12,0,0,0,12,12h88a12,12,0,0,0,0-24H240A12,12,0,0,0,228,336Z"/><path fill ="#ff6978" d="M284,272a12,12,0,0,0-12-12H216a12,12,0,0,0,0,24h56A12,12,0,0,0,284,272Z"/></g></g></svg>
