<?xml version="1.0" encoding="UTF-8"?>
<svg xmlns="http://www.w3.org/2000/svg" viewBox="0 0 512 512" width="512" height="512"><g id="_05-couldy" data-name="05-couldy"><g id="linear_color" data-name="linear color"><path fill="#dd2d4a" d="M508,192a52.068,52.068,0,0,0-49.382-51.935,51.993,51.993,0,0,0-97.587-10.345A132.035,132.035,0,0,0,199.883,86.6a51.654,51.654,0,0,0-37.265-18.536A52.007,52.007,0,0,0,61.141,69.141,52,52,0,0,0,72,172h54.692a131.3,131.3,0,0,0-4.635,31.069Q120.031,203,118,203a116,116,0,0,0,0,232h23.182A52.082,52.082,0,0,0,192,476h88a52.082,52.082,0,0,0,50.818-41H390a116.017,116.017,0,0,0,85.237-194.7A52.072,52.072,0,0,0,508,192ZM380,152a28,28,0,0,1,56-.073l-.02.66a12,12,0,0,0,14.391,11.977A28,28,0,1,1,456,220H368a28,28,0,0,1,0-56A12,12,0,0,0,380,152ZM44,120A28.032,28.032,0,0,1,72,92,12,12,0,0,0,84,80a28,28,0,0,1,56,0l0-.029c-.01.28-.018.559-.018.839a12,12,0,0,0,14.408,11.756,28.042,28.042,0,0,1,23.977,6.29A133,133,0,0,0,135.929,148H72A28.032,28.032,0,0,1,44,120ZM280,452H192a28,28,0,0,1,0-56,12,12,0,0,0,12-12,28,28,0,0,1,56-.073l-.02.66a12,12,0,0,0,14.391,11.977A28,28,0,1,1,280,452Zm110-41H330.346a52.1,52.1,0,0,0-47.728-38.935,52.007,52.007,0,0,0-101.477,1.076A52.168,52.168,0,0,0,141.654,411H118a92,92,0,0,1,0-184c3.577-.18,7.168.707,10.666,0,4.875.14,10.925.351,14.356-3.791,4.443-4.238,2.935-10.882,2.978-16.209a107.147,107.147,0,0,1,8.588-42.271c.014-.031.028-.061.041-.091A108.017,108.017,0,0,1,254,99a107.487,107.487,0,0,1,89.309,47.255A51.988,51.988,0,0,0,368,244h75.283A92,92,0,0,1,390,411Z"/></g></g></svg>
